<mxfile host="app.diagrams.net" modified="2023-03-28T13:21:41.970Z" agent="Mozilla/5.0 (Windows NT 10.0; Win64; x64) AppleWebKit/537.36 (KHTML, like Gecko) Chrome/111.0.0.0 Safari/537.36" version="21.1.1" etag="KlYl3tsORDuwJJnNG5S-" type="github">
  <diagram name="Страница 1" id="j0yqlx6kfImjDgKQWvaF">
    <mxGraphModel>
      <root>
        <mxCell id="0" />
        <mxCell id="1" parent="0" />
      </root>
    </mxGraphModel>
  </diagram>
</mxfile>
